<?xml version="1.0"?>
<svg xmlns="http://www.w3.org/2000/svg" viewBox="0 0 64 64" ><g id="outline"><path d="M61,2H57a1,1,0,0,0-1,1V4H54V3a1,1,0,0,0-1-1H29a1,1,0,0,0-1,1V4H8V3A1,1,0,0,0,7,2H3A1,1,0,0,0,2,3v8a1,1,0,0,0,1,1H7a1,1,0,0,0,1-1V10H28V21.184A2.966,2.966,0,0,0,27,21a3,3,0,0,0,0,6,2.966,2.966,0,0,0,1-.184v4.74A3.959,3.959,0,0,0,26,31a3.272,3.272,0,0,0-1.621.425A5.259,5.259,0,0,0,20,29a5.006,5.006,0,0,0-5,5,4,4,0,0,0-4,4,3.959,3.959,0,0,0,.556,2H10a2.993,2.993,0,0,0-1,5.816V53a9.01,9.01,0,0,0,9,9H46a9.01,9.01,0,0,0,9-9V45.816A2.993,2.993,0,0,0,54,40V10h2v1a1,1,0,0,0,1,1h4a1,1,0,0,0,1-1V3A1,1,0,0,0,61,2ZM6,10H4V4H6ZM50,4h2V40H50ZM46,4h2V40H46ZM42,4h2V40H42ZM38,4h2V40H38ZM30,4h6V40H30ZM8,8V6H28V8ZM27,25a1,1,0,1,1,1-1A1,1,0,0,1,27,25ZM15,36h1a1,1,0,0,0,1-1V34a3,3,0,0,1,3-3,3.272,3.272,0,0,1,3.037,2.269,1,1,0,0,0,1.686.422A1.717,1.717,0,0,1,26,33a2,2,0,0,1,2,2v5H15a2,2,0,0,1,0-4ZM53,48H47v2h6v3a7.009,7.009,0,0,1-7,7H18a7.009,7.009,0,0,1-7-7V46H53Zm2-5a1,1,0,0,1-1,1H10a1,1,0,0,1,0-2H54A1,1,0,0,1,55,43ZM56,8H54V6h2Zm4,2H58V4h2Z"/><path d="M10,30a3,3,0,1,0-3,3A3,3,0,0,0,10,30ZM6,30a1,1,0,1,1,1,1A1,1,0,0,1,6,30Z"/><path d="M16,25a4,4,0,1,0-4-4A4,4,0,0,0,16,25Zm0-6a2,2,0,1,1-2,2A2,2,0,0,1,16,19Z"/><rect x="43" y="48" width="2" height="2"/><rect x="19" y="34" width="2" height="2"/><rect x="24" y="36" width="2" height="2"/></g></svg>
